# xmcd
#
# Track frame offsets: 
#        150
#        36922
#        55825
#        78251
#        101902
#        119602
#        148012
#        165611
#        185756
#        204614
#        222123
#        237844
#
# Disc length: 3456 seconds
#
# Revision: 1
# Processed by: cddbd v1.5.2PL0 Copyright (c) Steve Scherf et al.
# Submitted via: ExactAudioCopy v0.95b3
#
DISCID=b00d7e0c
DTITLE=Bernardo Sassetti - Indigo
DYEAR=2004
DGENRE=Jazz
TTITLE0=Indigo
TTITLE1=Promessas
TTITLE2=My Ideal
TTITLE3=Never Let Me Go
TTITLE4=Raise Four
TTITLE5=Caminho Ate Aqui
TTITLE6=Inquietude
TTITLE7=Preludio em Sol Menor
TTITLE8=In Walked Bud
TTITLE9=My Funny Valentine
TTITLE10=Descarga!
TTITLE11=Indigo (reprise)
EXTD=YEAR: 2004
EXTT0=
EXTT1=
EXTT2=
EXTT3=
EXTT4=
EXTT5=
EXTT6=
EXTT7=
EXTT8=
EXTT9=
EXTT10=
EXTT11=
PLAYORDER=
